# xmcd
#
# Track frame offsets:
# 150
# 12591
# 27871
# 41061
# 54999
# 66629
# 79740
# 92781
# 105279
# 117517
# 129435
# 143536
# 154253
# 166273
# 177786
#
# Disc length: 2564 seconds
#
# Revision: 0
# Processed by: cddbd v1.5.2PL0 Copyright (c) Steve Scherf et al.
# Submitted via: Axialis_AX_CDPlayer 2.6
#
DISCID=c20a020f
DTITLE=Otis Redding - The Definitive Soul Collection - Disc 2 of 2
DYEAR=1900
DGENRE=
TTITLE0=Fa-Fa-Fa-Fa-Fa (Sad Song)
TTITLE1=Try A Little Tenderness
TTITLE2=I Love You More Than Words Can Say
TTITLE3=Tramp
TTITLE4=Shake
TTITLE5=Knock On Wood
TTITLE6=Glory Of Love
TTITLE7=(Sittin' On) The Dock Of The Bay
TTITLE8=The Happy Song (Dum-Dum)
TTITLE9=Lovey Dovey
TTITLE10=Amen
TTITLE11=Hard To Handle
TTITLE12=Look At The Girl
TTITLE13=Papa's Got A Brand New Bag
TTITLE14=I've Got Dreams To Remember
EXTD=www.otisredding.com
EXTT0=
EXTT1=
EXTT2=
EXTT3=
EXTT4=
EXTT5=
EXTT6=
EXTT7=
EXTT8=
EXTT9=
EXTT10=
EXTT11=
EXTT12=
EXTT13=
EXTT14=
PLAYORDER=
